:FULLY-SPECIFIED
:FORCE-ALL-JOINTS-BE-3DOF
:DEGREES
645
root 5.57613 16.4076 -2.75668 15.2311 12.9636 -0.114658
lfemur -17.0221 24.4687 -27.8598
ltibia 36.6182 -0 0
lfoot -36.931 15.5297 0.0177334
ltoes 22.7652 -0 0
rfemur -59.6739 -27.8952 32.6548
rtibia 68.6234 -0 0
rfoot -4.46695 2.0558 0.706847
rtoes -1.95572 0 0
lowerback -0.0793308 -3.97487 -5.26747
upperback -1.64361 -5.34135 0.112291
thorax -1.15943 -2.61025 3.07743
lowerneck -9.75477 -7.35661 -0.26796
upperneck 5.86563 -10.3817 6.2006
head 3.90151 -4.83848 1.40124
lclavicle -3.79679e-014 -7.95139e-015 0
lhumerus -35.37 -66.3864 116.573
lradius 70.8087 -0 0
lwrist 23.9374 0 0
lhand -6.46541 2.48651 0.0577171
lfingers 7.12502 -0 0
lthumb 19.3831 31.5178 0.0497009
rclavicle -3.79679e-014 -7.95139e-015 0
rhumerus -28.9238 -3.40781 -75.2771
rradius 70.5773 -0 0
rwrist -25.6338 0 0
rhand -29.6034 -43.496 -0.0321085
rfingers 7.12502 -0 0
rthumb -2.93444 -73.4549 -0.0310309
646
root 5.56838 16.3879 -2.71128 15.603 11.9436 -0.0249551
lfemur -17.076 24.4983 -28.0113
ltibia 36.6635 -0 0
lfoot -36.9572 15.0684 0.0158319
ltoes 22.4216 -0 0
rfemur -60.0903 -28.2436 33.1614
rtibia 68.5319 -0 0
rfoot -5.02525 1.19626 0.630808
rtoes -1.2494 0 0
lowerback -0.152482 -3.98289 -5.35531
upperback -1.66727 -5.3501 0.0380751
thorax -1.14142 -2.61373 3.04528
lowerneck -9.74642 -7.34868 -0.311601
upperneck 5.47253 -10.3526 6.37086
head 3.79876 -4.83136 1.47485
lclavicle -3.79679e-014 -7.95139e-015 0
lhumerus -36.4304 -67.0963 117.816
lradius 71.1433 -0 0
lwrist 24.0831 0 0
lhand -6.24672 2.66646 0.0515313
lfingers 7.12502 -0 0
lthumb 19.5935 31.6789 0.0443744
rclavicle -3.79679e-014 -7.95139e-015 0
rhumerus -30.7437 -3.70669 -75.4845
rradius 69.1139 -0 0
rwrist -24.2932 0 0
rhand -29.5707 -44.1637 -0.0286625
rfingers 7.12502 -0 0
rthumb -2.90282 -74.1231 -0.0277005
647
root 5.56062 16.3682 -2.66588 15.9718 10.923 0.0576819
lfemur -17.1301 24.5279 -28.1627
ltibia 36.7087 -0 0
lfoot -36.9834 14.6071 0.0137195
ltoes 22.0779 -0 0
rfemur -60.5115 -28.5887 33.6725
rtibia 68.4405 -0 0
rfoot -5.58234 0.337515 0.546406
rtoes -0.543089 0 0
lowerback -0.225621 -3.99102 -5.44315
upperback -1.69091 -5.35888 -0.0361379
thorax -1.12341 -2.61721 3.01313
lowerneck -9.73808 -7.34074 -0.35524
upperneck 5.07955 -10.3223 6.5409
head 3.69602 -4.82411 1.54844
lclavicle -3.79679e-014 -7.95139e-015 0
lhumerus -37.5632 -67.7967 119.131
lradius 71.4778 -0 0
lwrist 24.2288 0 0
lhand -6.02804 2.84639 0.0446586
lfingers 7.12502 -0 0
lthumb 19.804 31.8399 0.0384565
rclavicle -3.79679e-014 -7.95139e-015 0
rhumerus -32.5632 -4.01198 -75.6823
rradius 67.6506 -0 0
rwrist -22.9527 0 0
rhand -29.538 -44.8314 -0.0248352
rfingers 7.12502 -0 0
rthumb -2.87125 -74.7912 -0.0240016
648
root 5.55286 16.3485 -2.62048 16.338 9.90194 0.133378
lfemur -17.1842 24.5573 -28.3143
ltibia 36.754 -0 0
lfoot -37.0096 14.1458 0.0113964
ltoes 21.7342 -0 0
rfemur -60.9376 -28.9305 34.1882
rtibia 68.349 -0 0
rfoot -6.1381 -0.520356 0.453669
rtoes 0.163227 -0 0
lowerback -0.298749 -3.99927 -5.53097
upperback -1.71455 -5.3677 -0.110348
thorax -1.1054 -2.62067 2.98099
lowerneck -9.72975 -7.33279 -0.398876
upperneck 4.6867 -10.2908 6.71071
head 3.59329 -4.81673 1.62203
lclavicle -3.79679e-014 -7.95139e-015 0
lhumerus -38.7743 -68.4867 120.524
lradius 71.8123 -0 0
lwrist 24.3745 0 0
lhand -5.80939 3.02629 0.0370993
lfingers 7.12502 -0 0
lthumb 20.0144 32.0009 0.0319472
rclavicle -3.79679e-014 -7.95139e-015 0
rhumerus -34.3823 -4.32339 -75.8704
rradius 66.1873 -0 0
rwrist -21.6121 0 0
rhand -29.5053 -45.4991 -0.0206271
rfingers 7.12502 -0 0
rthumb -2.83972 -75.4594 -0.0199348
649
root 5.5451 16.3287 -2.57509 16.7017 8.88044 0.202245
lfemur -17.2384 24.5866 -28.4659
ltibia 36.7993 -0 0
lfoot -37.0357 13.6845 0.00886268
ltoes 21.3905 -0 0
rfemur -61.3686 -29.2689 34.7085
rtibia 68.2576 -0 0
rfoot -6.69239 -1.37728 0.352627
rtoes 0.869543 -0 0
lowerback -0.371865 -4.00763 -5.61878
upperback -1.73817 -5.37654 -0.184556
thorax -1.08738 -2.62413 2.94884
lowerneck -9.72142 -7.32483 -0.442511
upperneck 4.29399 -10.2583 6.88027
head 3.49057 -4.80922 1.69559
lclavicle -3.79679e-014 -7.95139e-015 0
lhumerus -40.0701 -69.1652 122.001
lradius 72.1469 -0 0
lwrist 24.5202 0 0
lhand -5.59077 3.20616 0.0288536
lfingers 7.12502 -0 0
lthumb 20.2248 32.1619 0.0248467
rclavicle -3.79679e-014 -7.95139e-015 0
rhumerus -36.2011 -4.64059 -76.0485
rradius 64.724 -0 0
rwrist -20.2715 0 0
rhand -29.4727 -46.1668 -0.0160389
rfingers 7.12502 -0 0
rthumb -2.80824 -76.1276 -0.0155006
650
root 5.53735 16.309 -2.52969 17.0632 7.85852 0.264385
lfemur -17.2928 24.6158 -28.6176
ltibia 36.8446 -0 0
lfoot -37.0618 13.2232 0.0061186
ltoes 21.0469 -0 0
rfemur -61.8045 -29.6038 35.2334
rtibia 68.1661 -0 0
rfoot -7.24511 -2.23317 0.243311
rtoes 1.57586 -0 0
lowerback -0.444968 -4.0161 -5.70659
upperback -1.76178 -5.38541 -0.258761
thorax -1.06936 -2.62758 2.91669
lowerneck -9.7131 -7.31687 -0.486144
upperneck 3.90141 -10.2246 7.04959
head 3.38786 -4.80158 1.76915
lclavicle -3.79679e-014 -7.95139e-015 0
lhumerus -41.4574 -69.831 123.569
lradius 72.4814 -0 0
lwrist 24.6659 0 0
lhand -5.37217 3.38599 0.0199217
lfingers 7.12502 -0 0
lthumb 20.4351 32.3228 0.0171553
rclavicle -3.79679e-014 -7.95139e-015 0
rhumerus -38.0198 -4.96327 -76.2166
rradius 63.2606 -0 0
rwrist -18.9309 0 0
rhand -29.4402 -46.8345 -0.0110712
rfingers 7.12502 -0 0
rthumb -2.77681 -76.7957 -0.0106997
651
root 5.52959 16.2893 -2.48429 17.4228 6.83624 0.319887
lfemur -17.3472 24.6448 -28.7693
ltibia 36.8898 -0 0
lfoot -37.0879 12.7619 0.00316431
ltoes 20.7032 -0 0
rfemur -62.2455 -29.9352 35.763
rtibia 68.0747 -0 0
rfoot -7.79613 -3.08797 0.125756
rtoes 2.28217 -0 0
lowerback -0.518059 -4.02468 -5.79439
upperback -1.78538 -5.39432 -0.332964
thorax -1.05134 -2.63101 2.88453
lowerneck -9.70478 -7.3089 -0.529775
upperneck 3.50899 -10.1897 7.21865
head 3.28517 -4.79381 1.84269
lclavicle -3.79679e-014 -7.95139e-015 0
lhumerus -42.9437 -70.4828 125.236
lradius 72.816 -0 0
lwrist 24.8116 0 0
lhand -5.1536 3.5658 0.0103037
lfingers 7.12502 -0 0
lthumb 20.6455 32.4837 0.00887298
rclavicle -3.79679e-014 -7.95139e-015 0
rhumerus -39.8384 -5.2911 -76.3743
rradius 61.7973 -0 0
rwrist -17.5903 0 0
rhand -29.4077 -47.5021 -0.00572468
rfingers 7.12502 -0 0
rthumb -2.74544 -77.4639 -0.00553254
652
root 5.52183 16.2696 -2.43889 17.7807 5.81363 0.36883
lfemur -17.4017 24.6737 -28.9211
ltibia 36.9351 0 0
lfoot -37.114 12.3006 0
ltoes 20.3595 0 0
rfemur -62.6914 -30.2631 36.2973
rtibia 67.9832 0 0
rfoot -8.34533 -3.94159 0
rtoes 2.98849 0 0
lowerback -0.591138 -4.03337 -5.88217
upperback -1.80897 -5.40325 -0.407164
thorax -1.03332 -2.63444 2.85238
lowerneck -9.69647 -7.30093 -0.573404
upperneck 3.11671 -10.1537 7.38745
head 3.18248 -4.7859 1.91621
lclavicle -3.79679e-014 -7.95139e-015 0
lhumerus -44.5367 -71.1192 127.009
lradius 73.1505 0 0
lwrist 24.9573 0 0
lhand -4.93506 3.74556 0
lfingers 7.12502 0 0
lthumb 20.8558 32.6446 0
rclavicle -3.79679e-014 -7.95139e-015 0
rhumerus -41.6572 -5.62375 -76.5216
rradius 60.334 0 0
rwrist -16.2497 0 0
rhand -29.3753 -48.1698 0
rfingers 7.12502 0 0
rthumb -2.71414 -798.132 0
653
root 5.51547 16.2731 -2.31342 17.6813 4.70104 0.332372
lfemur -18.2061 24.539 -27.9437
ltibia 39.6839 -0 0
lfoot -35.2506 11.2659 -0.569704
ltoes 20.1697 -0 0
rfemur -61.5462 -29.685 35.6605
rtibia 67.5649 -0 0
rfoot -8.8286 -3.95314 0.00146867
rtoes 2.94432 -0 0
lowerback -0.502639 -4.11277 -5.70282
upperback -1.80659 -5.51426 -0.38251
thorax -1.0921 -2.69059 2.79041
lowerneck -9.65367 -7.18158 -0.536989
upperneck 3.12088 -9.98851 7.23184
head 3.16007 -4.70921 1.87063
lclavicle -8.91549e-014 -2.06736e-014 0
lhumerus -41.1592 -71.4745 122.974
lradius 73.791 -0 0
lwrist 25.1675 0 0
lhand -5.28258 3.56565 0.0164258
lfingers 7.12502 -0 0
lthumb 20.5211 32.491 0.0134978
rclavicle -8.91549e-014 -2.06736e-014 0
rhumerus -41.7043 -5.69037 -75.2802
rradius 61.1963 -0 0
rwrist -16.3442 0 0
rhand -29.3032 -48.0974 0.00136692
rfingers 7.12502 -0 0
rthumb -2.64451 -78.0601 0.00131024
654
root 5.50911 16.2766 -2.18795 17.5828 3.58838 0.297897
lfemur -19.0121 24.4167 -26.9654
ltibia 42.4326 -0 0
lfoot -33.377 10.2131 -1.10537
ltoes 19.9798 -0 0
rfemur -60.415 -29.096 35.0406
rtibia 67.1467 -0 0
rfoot -9.31187 -3.96469 0.00283989
rtoes 2.90014 -0 0
lowerback -0.414382 -4.19245 -5.52358
upperback -1.80425 -5.62527 -0.357856
thorax -1.15083 -2.74679 2.7285
lowerneck -9.61081 -7.06227 -0.500494
upperneck 3.12458 -9.82331 7.07632
head 3.1376 -4.63255 1.82503
lclavicle -8.91549e-014 -2.06736e-014 0
lhumerus -37.654 -71.7516 118.811
lradius 74.4315 -0 0
lwrist 25.3776 0 0
lhand -5.63014 3.38564 0.0317601
lfingers 7.12502 -0 0
lthumb 20.1863 32.3374 0.0260984
rclavicle -8.91549e-014 -2.06736e-014 0
rhumerus -41.7527 -5.75596 -74.0386
rradius 62.0586 -0 0
rwrist -16.4387 0 0
rhand -29.2311 -48.025 0.00264273
rfingers 7.12502 -0 0
rthumb -2.57489 -77.9883 0.00253314
